<svg width="960" height="280" viewBox="0 0 960 280" fill="none" xmlns="http://www.w3.org/2000/svg">
  <title>CivicShield AI logo</title>
  <defs>
    <linearGradient id="shieldGradient" x1="70" y1="30" x2="218" y2="236" gradientUnits="userSpaceOnUse">
      <stop stop-color="#0EA5E9"/>
      <stop offset="0.52" stop-color="#0F766E"/>
      <stop offset="1" stop-color="#14532D"/>
    </linearGradient>
    <linearGradient id="pinGradient" x1="116" y1="78" x2="174" y2="176" gradientUnits="userSpaceOnUse">
      <stop stop-color="#FFFFFF"/>
      <stop offset="1" stop-color="#DFFCF3"/>
    </linearGradient>
    <filter id="softShadow" x="34" y="12" width="222" height="252" filterUnits="userSpaceOnUse" color-interpolation-filters="sRGB">
      <feFlood flood-opacity="0" result="BackgroundImageFix"/>
      <feColorMatrix in="SourceAlpha" type="matrix" values="0 0 0 0 0 0 0 0 0 0 0 0 0 0 0 0 0 0 127 0" result="hardAlpha"/>
      <feOffset dy="14"/>
      <feGaussianBlur stdDeviation="18"/>
      <feComposite in2="hardAlpha" operator="out"/>
      <feColorMatrix type="matrix" values="0 0 0 0 0.023 0 0 0 0 0.145 0 0 0 0 0.22 0 0 0 0.18 0"/>
      <feBlend mode="normal" in2="BackgroundImageFix" result="effect1_dropShadow"/>
      <feBlend mode="normal" in="SourceGraphic" in2="effect1_dropShadow" result="shape"/>
    </filter>
  </defs>

  <rect width="960" height="280" rx="40" fill="#F8FAFC"/>

  <g filter="url(#softShadow)">
    <path d="M145 34L230 66V128C230 185 196 224 145 244C94 224 60 185 60 128V66L145 34Z" fill="url(#shieldGradient)"/>
    <path d="M145 54L210 78V128C210 172 184 204 145 222C106 204 80 172 80 128V78L145 54Z" fill="white" fill-opacity="0.1"/>
  </g>

  <path d="M145 74C118.49 74 97 95.49 97 122C97 157 145 198 145 198C145 198 193 157 193 122C193 95.49 171.51 74 145 74Z" fill="url(#pinGradient)"/>
  <circle cx="145" cy="122" r="18" fill="#0F766E"/>
  <path d="M112 180C122 188 133 194 145 199C157 194 168 188 178 180" stroke="#DFFCF3" stroke-width="10" stroke-linecap="round"/>
  <path d="M96 91L116 82M194 91L174 82" stroke="#B8F5E6" stroke-width="7" stroke-linecap="round" opacity="0.9"/>

  <g>
    <text x="290" y="130" fill="#0F172A" font-family="Inter, Arial, sans-serif" font-size="58" font-weight="800" letter-spacing="0">
      CivicShield
    </text>
    <text x="292" y="178" fill="#0F766E" font-family="Inter, Arial, sans-serif" font-size="28" font-weight="700" letter-spacing="5">
      AI PUBLIC SAFETY PORTAL
    </text>
    <path d="M292 204H760" stroke="#CBD5E1" stroke-width="2" stroke-linecap="round"/>
    <text x="292" y="238" fill="#475569" font-family="Inter, Arial, sans-serif" font-size="22" font-weight="500">
      Anonymous civic reports, emergency guidance, and local issue tracking.
    </text>
  </g>
</svg>
